<?xml version="1.0" encoding="iso-8859-1"?>
<!-- Generator: Adobe Illustrator 19.0.0, SVG Export Plug-In . SVG Version: 6.00 Build 0)  -->
<svg version="1.1" id="Capa_1" xmlns="http://www.w3.org/2000/svg" xmlns:xlink="http://www.w3.org/1999/xlink" x="0px" y="0px"
	 viewBox="0 0 512 512" style="enable-background:new 0 0 512 512;" xml:space="preserve">
<circle style="fill:#FFD93B;" cx="256" cy="256" r="256"/>
<path style="fill:#F4C534;" d="M512,256c0,141.44-114.64,256-256,256c-80.48,0-152.32-37.12-199.28-95.28
	c43.92,35.52,99.84,56.72,160.72,56.72c141.36,0,256-114.56,256-256c0-60.88-21.2-116.8-56.72-160.72
	C474.8,103.68,512,175.52,512,256z"/>
<g>
	<path style="fill:#3E4347;" d="M231.136,265.008c-31.312-26.448-101.936-17.392-121.424,16.08
		c-12.144-31.136,12.464-73.216,50.64-78.32C203.648,197.072,233.056,233.008,231.136,265.008z"/>
	<path style="fill:#3E4347;" d="M280.864,265.008c31.312-26.448,101.936-17.392,121.424,16.08
		c12.144-31.136-12.464-73.216-50.64-78.32C308.352,197.072,278.944,233.008,280.864,265.008z"/>
	<path style="fill:#3E4347;" d="M430.288,325.296c-26.832,82.736-99.584,144.992-174.208,145.264
		c-74.768-0.272-147.52-62.608-174.352-145.264c-3.248-10.4,9.872-20.064,22.576-16.288c105.664,31.904,197.92,31.76,303.584,0
		C420.416,305.264,433.536,314.816,430.288,325.296z"/>
</g>
<path style="fill:#FFFFFF;" d="M363.728,362.272c2.208-14.32,4.4-28.848,6.576-43.216c-77.12,18.192-148.48,18.384-225.456,0.688
	c2.432,14.16,4.88,28.304,7.312,42.432c0.784,4.448,5.136,7.568,10.464,8.496c63.616,10.944,126.928,10.88,190.576,0.272
	C358.624,370.048,363.024,366.896,363.728,362.272z"/>
<path style="fill:#E24B4B;" d="M244.544,393.744c9.376,3.584,20.176,2.448,29.36-1.552c19.68-8.544,44.944-5.488,50.512,21.28
	c0.048,0.192,0.08,0.4,0.128,0.656c5.152,29.28-21.936,55.376-53.824,56.368c-1.392,0.128-2.8,0.048-4.208,0.064
	c-8.112,0.048-16.048-0.8-23.856-2.128c-15.584-2.832-29.472-12.272-36.64-25.376c-4.176-7.648-7.184-16.16-8.288-25.408
	C194.304,390.192,219.088,384.016,244.544,393.744z"/>
<path style="opacity:0.2;fill:#FFFFFF;enable-background:new    ;" d="M309.232,414.848c-2.112,2.56-4.976,2.928-8.016,0.272
	c-1.264-0.992-2.32-2.208-3.088-3.584c-1.52-2.672-4.288-4.592-7.552-5.488c-1.44-0.432-2.72-1.312-3.2-2.992
	c-0.384-1.424,0.624-3.472,3.552-5.072C303.376,391.296,316.608,405.408,309.232,414.848z"/>
<g>
	<path style="fill:#3E4347;" d="M398.736,148.032c-9.92-21.024-53.616-70.912-94.24-48.208
		C338.256,48.928,391.968,71.728,398.736,148.032z"/>
	<path style="fill:#3E4347;" d="M113.264,148.032c9.92-21.024,53.616-70.912,94.24-48.208
		C173.744,48.928,120.032,71.728,113.264,148.032z"/>
</g>
<g>
	<path style="fill:#65B1EF;" d="M496.176,410.512c-5.024-17.472-54.512-70.56-54.512-70.56s-13.808,71.232-8.784,88.72
		c5.024,17.472,23.248,27.584,40.736,22.56S501.2,428,496.176,410.512z"/>
	<path style="fill:#65B1EF;" d="M15.824,410.512c5.008-17.472,54.512-70.56,54.512-70.56s13.808,71.232,8.784,88.72
		c-5.008,17.472-23.248,27.584-40.736,22.56C20.912,446.224,10.8,428,15.824,410.512z"/>
</g>
<g>
</g>
<g>
</g>
<g>
</g>
<g>
</g>
<g>
</g>
<g>
</g>
<g>
</g>
<g>
</g>
<g>
</g>
<g>
</g>
<g>
</g>
<g>
</g>
<g>
</g>
<g>
</g>
<g>
</g>
</svg>
