<svg id="Layer_1" enable-background="new 0 0 512.134 512.134" height="512" viewBox="0 0 512.134 512.134" width="512" xmlns="http://www.w3.org/2000/svg"><path d="m512.134 48.067v96c0 26.51-21.49 48-48 48h-416c-26.51 0-48-21.49-48-48 0-102.853-1.188-102.507 3.52-114.08 7.14-17.55 24.37-29.92 44.48-29.92h416c26.51 0 48 21.49 48 48z" fill="#aaa"/><path d="m512.134 48.067v32c0 26.51-21.49 48-48 48h-336c-60.39 0-111.01-41.82-124.48-98.08 7.14-17.55 24.37-29.92 44.48-29.92h416c26.51 0 48 21.49 48 48z" fill="#bcbcbc"/><path d="m512.134 208.067v96c0 26.51-21.49 48-48 48h-416c-26.51 0-48-21.49-48-48 0-102.853-1.188-102.507 3.52-114.08 7.14-17.55 24.37-29.92 44.48-29.92h416c26.51 0 48 21.49 48 48z" fill="#aaa"/><path d="m512.134 208.067v32c0 26.51-21.49 48-48 48h-336c-60.39 0-111.01-41.82-124.48-98.08 7.14-17.55 24.37-29.92 44.48-29.92h416c26.51 0 48 21.49 48 48z" fill="#bcbcbc"/><path d="m512.134 368.067v96c0 26.51-21.49 48-48 48h-416c-26.51 0-48-21.49-48-48 0-102.853-1.188-102.507 3.52-114.08 7.14-17.55 24.37-29.92 44.48-29.92h416c26.51 0 48 21.49 48 48z" fill="#aaa"/><path d="m512.134 368.067v32c0 26.51-21.49 48-48 48h-336c-60.39 0-111.01-41.82-124.48-98.08 7.14-17.55 24.37-29.92 44.48-29.92h416c26.51 0 48 21.49 48 48z" fill="#bcbcbc"/><path d="m512.134 48.067c0-26.468-21.533-48-48-48h-416c-26.467 0-48 21.532-48 48v96c0 12.285 4.644 23.501 12.261 32-7.618 8.499-12.261 19.715-12.261 32v96c0 12.285 4.644 23.501 12.261 32-7.618 8.499-12.261 19.715-12.261 32v96c0 26.468 21.533 48 48 48h416c26.467 0 48-21.532 48-48v-96c0-12.285-4.644-23.501-12.261-32 7.618-8.499 12.261-19.715 12.261-32v-96c0-12.285-4.644-23.501-12.261-32 7.618-8.499 12.261-19.715 12.261-32zm-480 0c0-8.822 7.178-16 16-16h416c8.822 0 16 7.178 16 16v96c0 8.822-7.178 16-16 16h-416c-8.822 0-16-7.178-16-16zm448 160v96c0 8.822-7.178 16-16 16h-416c-8.822 0-16-7.178-16-16v-96c0-8.822 7.178-16 16-16h416c8.822 0 16 7.178 16 16zm0 256c0 8.822-7.178 16-16 16h-416c-8.822 0-16-7.178-16-16v-96c0-8.822 7.178-16 16-16h416c8.822 0 16 7.178 16 16z"/><path d="m432.134 128.067c8.836 0 16-7.163 16-16v-32c0-8.837-7.164-16-16-16s-16 7.163-16 16v32c0 8.837 7.163 16 16 16z"/><path d="m368.134 128.067c8.836 0 16-7.163 16-16v-32c0-8.837-7.164-16-16-16s-16 7.163-16 16v32c0 8.837 7.163 16 16 16z"/><path d="m176.134 112.067h128c8.836 0 16-7.163 16-16s-7.164-16-16-16h-128c-8.836 0-16 7.163-16 16s7.163 16 16 16z"/><path d="m96.134 288.067c17.645 0 32-14.355 32-32s-14.355-32-32-32-32 14.355-32 32 14.355 32 32 32z"/><path d="m96.134 384.067c-17.645 0-32 14.355-32 32s14.355 32 32 32 32-14.355 32-32-14.355-32-32-32z"/><path d="m96.134 128.067c17.645 0 32-14.355 32-32s-14.355-32-32-32-32 14.355-32 32 14.355 32 32 32z"/><path d="m432.134 288.067c8.836 0 16-7.163 16-16v-32c0-8.837-7.164-16-16-16s-16 7.163-16 16v32c0 8.837 7.163 16 16 16z"/><path d="m368.134 288.067c8.836 0 16-7.163 16-16v-32c0-8.837-7.164-16-16-16s-16 7.163-16 16v32c0 8.837 7.163 16 16 16z"/><path d="m176.134 272.067h128c8.836 0 16-7.163 16-16s-7.164-16-16-16h-128c-8.836 0-16 7.163-16 16s7.163 16 16 16z"/><path d="m432.134 384.067c-8.836 0-16 7.163-16 16v32c0 8.837 7.164 16 16 16s16-7.163 16-16v-32c0-8.837-7.164-16-16-16z"/><path d="m368.134 384.067c-8.836 0-16 7.163-16 16v32c0 8.837 7.164 16 16 16s16-7.163 16-16v-32c0-8.837-7.164-16-16-16z"/><path d="m304.134 400.067h-128c-8.836 0-16 7.163-16 16s7.164 16 16 16h128c8.836 0 16-7.163 16-16s-7.164-16-16-16z"/></svg>