<svg id="Capa_1" enable-background="new 0 0 512 512" height="512" viewBox="0 0 512 512" width="512" xmlns="http://www.w3.org/2000/svg"><path d="m115.299 256c0 77.583 63.118 140.702 140.701 140.702s140.701-63.119 140.701-140.702-63.118-140.702-140.701-140.702-140.701 63.119-140.701 140.702z"/><path d="m217.111 82.812h77.779c2.76 0 5.311-1.473 6.691-3.863s1.38-5.336 0-7.726l-38.89-67.36c-1.38-2.39-3.931-3.863-6.691-3.863s-5.311 1.473-6.691 3.863l-38.889 67.359c-1.38 2.39-1.38 5.336 0 7.726 1.38 2.391 3.93 3.864 6.691 3.864z"/><path d="m294.889 429.188h-77.779c-2.76 0-5.311 1.473-6.691 3.863s-1.38 5.336 0 7.726l38.889 67.359c1.38 2.39 3.931 3.863 6.691 3.863s5.311-1.473 6.691-3.863l38.889-67.359c1.38-2.39 1.38-5.336 0-7.726-1.379-2.39-3.929-3.863-6.69-3.863z"/><path d="m508.137 249.309-67.359-38.89c-2.39-1.38-5.336-1.38-7.726 0s-3.863 3.931-3.863 6.691v77.78c0 2.76 1.473 5.311 3.863 6.691 1.195.69 2.529 1.035 3.863 1.035s2.668-.345 3.863-1.035l67.359-38.89c2.39-1.38 3.863-3.931 3.863-6.691s-1.473-5.311-3.863-6.691z"/><path d="m78.949 301.581c2.39-1.38 3.863-3.931 3.863-6.691v-77.78c0-2.76-1.473-5.311-3.863-6.691s-5.336-1.38-7.726 0l-67.359 38.89c-2.391 1.38-3.864 3.931-3.864 6.691s1.473 5.311 3.863 6.691l67.359 38.89c1.195.69 2.529 1.035 3.863 1.035s2.669-.345 3.864-1.035z"/><path d="m405.962 167.435c1.469 1.468 3.441 2.263 5.464 2.263.667 0 1.339-.086 2-.263 2.666-.715 4.749-2.797 5.463-5.464l20.131-75.129c.714-2.666-.047-5.511-1.999-7.463-1.954-1.953-4.798-2.714-7.464-2l-75.13 20.131c-2.666.715-4.749 2.797-5.463 5.464-.714 2.666.047 5.511 1.999 7.463z"/><path d="m106.038 357.362c-1.954-1.953-4.799-2.713-7.464-2-2.666.715-4.749 2.797-5.463 5.464l-20.131 75.129c-.714 2.666.047 5.511 1.999 7.463 1.469 1.468 3.442 2.263 5.464 2.263.667 0 1.339-.086 2-.263l75.13-20.131c2.666-.715 4.749-2.797 5.463-5.464.714-2.666-.047-5.511-1.999-7.463z"/><path d="m418.888 360.826c-.714-2.667-2.797-4.749-5.463-5.464-2.663-.713-5.51.048-7.464 2l-54.999 54.998c-1.952 1.952-2.713 4.797-1.999 7.463.714 2.667 2.797 4.749 5.463 5.464l75.13 20.131c.661.177 1.333.263 2 .263 2.022 0 3.995-.795 5.464-2.263 1.952-1.952 2.713-4.797 1.999-7.463z"/><path d="m93.112 163.971c.714 2.667 2.797 4.749 5.463 5.464.661.177 1.333.263 2 .263 2.022 0 3.995-.795 5.464-2.263l54.999-54.998c1.952-1.952 2.713-4.797 1.999-7.463-.714-2.667-2.797-4.749-5.463-5.464l-75.13-20.131c-2.664-.713-5.51.048-7.464 2-1.952 1.952-2.713 4.797-1.999 7.463z"/></svg>