<svg id="Capa_1" enable-background="new 0 0 512 512" height="512" viewBox="0 0 512 512" width="512" xmlns="http://www.w3.org/2000/svg"><g><path d="m105.861 382.685.466.443c23.597 22.474 61.997 22.474 85.6-.006l.479-.456c34.99-33.326 91.956-33.327 126.966.019l.467.443c23.597 22.474 61.997 22.474 85.6-.006l.479-.456c28.666-27.302 72.073-32.221 106.082-14.779v-91.16c-23.612-22.298-61.87-22.244-85.411.177l-.455.434c-17.508 16.675-40.506 25.013-63.5 25.013-22.994.001-45.985-8.335-63.49-25.007l-.467-.445c-23.597-22.474-61.997-22.474-85.6.006l-.455.434c-35.016 33.35-91.98 33.35-126.99.006l-.467-.445c-23.383-22.27-61.301-22.472-84.95-.604l-.105.1.039 91.286c33.951-17.205 77.139-12.211 105.712 15.003z"/><path d="m426.589 149.402-.455.434c-17.508 16.675-40.506 25.013-63.5 25.013-22.994.001-45.985-8.335-63.49-25.007l-.467-.445c-23.597-22.474-61.997-22.474-85.6.006l-.455.434c-35.016 33.35-91.98 33.35-126.99.006l-.467-.445c-23.383-22.27-61.301-22.472-84.95-.604l-.16.152.039 91.262c33.958-17.237 77.179-12.253 105.766 14.974l.467.445c23.597 22.474 61.997 22.474 85.6-.006l.455-.434c35.016-33.35 91.98-33.35 126.99-.006l.467.445c23.597 22.474 61.997 22.474 85.6-.006l.455-.434c28.687-27.322 72.098-32.244 106.106-14.802v-91.159c-23.612-22.298-61.87-22.244-85.411.177z"/><path d="m105.86 127.677.467.445c23.597 22.473 61.997 22.475 85.6-.006l.455-.434c35.016-33.35 91.98-33.35 126.99-.006l.467.445c23.597 22.473 61.997 22.475 85.6-.006l.455-.434c28.686-27.32 72.097-32.242 106.106-14.8v-90.909l-.442-.421c-28.143-26.804-73.773-26.804-101.916 0l-.221.21-.221.21c-28.144 26.804-73.773 26.804-101.916 0l-.221-.21-.221-.21c-28.143-26.804-73.772-26.804-101.916 0l-.221.21-.221.21c-28.143 26.804-73.773 26.804-101.916 0l-.221-.21-.221-.21c-28.143-26.804-73.773-26.804-101.916 0v.009l-.21.202.039 90.971c33.967-17.271 77.219-12.297 105.821 14.944z"/><path d="m426.59 404.407-.456.434c-17.508 16.675-40.506 25.013-63.5 25.013-22.994.001-45.985-8.335-63.49-25.007l-.442-.421c-23.62-22.497-62.022-22.498-85.623-.019l-.456.434c-35.016 33.35-91.98 33.35-126.99.006l-.442-.421c-23.416-22.302-61.357-22.497-85.004-.6l-.02.019.046 106.706h511.787v-106.318c-23.623-22.299-61.875-22.243-85.41.174z"/></g></svg>